<!-- Generated by IcoMoon.io -->
<svg version="1.1" xmlns="http://www.w3.org/2000/svg" width="1024" height="1024" viewBox="0 0 1024 1024">
<title></title>
<g id="icomoon-ignore">
</g>
<path fill="#000" d="M879.030 702.391c1.535 2.926 4.608 5.853 4.536 8.851 0 6.948-0.658 14.043-2.487 20.772-3.219 11.556-7.388 22.821-11.191 34.159-3.145 9.144-4.901 22.528-17.409 19.383-6.218-1.535-9.728-14.043-14.482-21.505 1.245-0.658 2.561-1.245 3.878-1.756 0-8.997-0.658-17.992 0.293-26.843 0.365-3.363 3.803-6.948 6.583-9.509 7.095-6.583 14.482-12.801 22.017-18.872 2.34-1.903 5.485-3.145 8.193-4.68zM1024 512c0 282.333-229.67 512-512 512s-512-229.67-512-512 229.67-512 512-512 512 229.67 512 512zM916.481 323.73c3.878-0.365 7.899-0.365 11.703-1.245 1.98-0.494 3.685-1.095 5.315-1.833l-0.193 0.080c-3.132-7.128-5.091-11.237-7.107-15.315l1.255 2.808c-1.882-0.303-4.055-0.476-6.267-0.476-1.839 0-3.651 0.118-5.426 0.352l0.208-0.023c-5.413 0.73-10.461 3.51-15.871 4.536-14.994 2.852-18.213 8.997-9.509 21.212 3.649 5.112 8.329 9.252 13.757 12.183l0.213 0.105c7.753 3.878 7.534 5.853 1.17 11.337-10.679 9.288-9.581 13.752 3.073 18.504 4.536 1.756 9.509 2.415 12.947 3.145 14.775 0.365 18.285-3.657 13.971-16.385-3.219-9.435-8.63-18.213-13.019-27.208l-6.29-11.777zM829.44 181.394c-8.997 1.317-18.067 1.756-27.062 3.073-2.121 0.365-5.631 2.926-5.485 4.022 0.219 2.415 3.585 6.729 3.95 6.583 9.144-4.536 20.553 7.606 29.111-4.461 2.276-2.767 5.243-4.886 8.64-6.102l0.139-0.044-5.925-5.559c-1.098 1.17-2.193 2.34-3.363 2.487zM794.916 316.342c-4.827-7.388-10.751-4.536-15.434 1.17-4.022 4.973-8.63 9.509-11.631 14.922-2.047 3.878-3.51 9.728-1.975 13.312 0.877 2.34 8.118 3.803 11.921 2.926 19.309-4.608 38.327-5.997 57.343 1.023 0.73 0.293 1.463 0.072 6.071 0.072l13.531-4.68c-3.657-4.608-6.948-9.656-11.191-13.605-4.608-4.243-12.435-6.29-14.701-11.263-4.168-8.923-7.606-9.216-13.094-2.34-7.827 9.728-13.971 8.923-20.847-1.535zM94.5 611.183c11.263-7.388 16.604-19.967 10.314-33.573-3.219-7.169-5.413-19.383-19.090-8.558-6.364 4.901-28.818-7.606-34.961-20.188 7.755 95.629 43.655 181.63 99.303 251.134l-0.705-0.913c1.975-12.654 3.657-25.455 5.194-38.181 1.828-14.189-1.317-25.966-15.141-31.67-19.455-7.971-27.355-25.015-36.206-41.912-5.12-9.728-11.921-18.725-17.992-28.088-1.17-1.756-4.022-4.389-3.657-4.827 9.802-12.654-4.168-31.816 12.947-43.154zM974.85 512c0-18.797-1.245-37.304-3.438-55.589-10.533 0.512-20.847-1.245-29.183-11.191-1.463-1.828-5.413-3.363-7.313-2.561-16.969 6.218-25.966-5.631-36.571-14.629-3.291-2.926-8.486-3.363-12.801-4.901 0.73 4.389 0.44 9.144 2.415 12.726 3.51 6.071 8.558 11.191 12.726 16.822 6.436 8.776 12.435 14.847 23.77 5.485 12.726-10.533 20.335 3.731 28.746 8.923 9.363 5.778 1.317 13.238-2.78 17.555-9.581 9.874-19.53 20.335-31.305 26.99-15.287 8.558-32.403 14.043-49.006 20.114-16.239 6.071-19.018 3.51-24.722-12.142-4.243-11.556-11.191-22.089-17.115-32.986-6.948-12.947-14.043-25.892-21.137-38.839-1.975-3.731-3.363-8.118-6.29-10.898-2.047-1.828-6.218-1.756-9.288-1.535-0.658 0-2.193 5.266-1.17 7.023 15.141 27.795 30.574 55.589 46.152 83.016 2.78 4.901 8.997 8.704 9.802 13.531 2.852 17.92 13.166 14.189 24.868 10.751 9.069-2.633 18.504-3.585 27.795-5.266-3.073 9.802-4.827 20.335-9.581 29.258-7.899 14.775-17.555 27.648-32.914 37.376-13.166 8.411-24.575 22.31-31.891 36.352-4.168 8.046 1.463 21.137 2.487 31.963 1.098 12.435 4.536 25.161 2.268 36.864-1.389 7.46-10.314 14.629-17.481 19.53-11.409 7.827-20.772 15.069-14.189 30.867 1.245 2.852 1.098 9.216-0.219 9.802-18.067 7.753-18.36 28.16-29.404 41.325-19.309 23.187-44.617 25.161-70.218 28.16-4.168 0.512-10.679-7.169-13.752-12.435-5.853-10.239-9.946-21.505-14.629-32.328-1.432-2.939-3.037-6.781-4.461-10.707l-0.293-0.923c-4.389-13.166-7.169-27.208-13.312-39.497-8.923-17.774-12.361-32.475 0.73-51.128 8.265-11.703-2.047-27.429-6.218-40.814-2.080-6.333-5.727-11.679-10.486-15.76l-0.046-0.039c-13.824-11.044-11.484-23.77-6.655-37.887 4.827-13.896 0.877-19.309-12.361-15.799-8.411 2.193-13.166 1.61-17.555-5.853-5.853-9.946-14.189-8.704-24.138-5.706-12.507 3.878-25.745 5.559-38.692 8.046-2.705 0.44-6.218-0.951-8.411 0.219-23.77 13.605-32.768-7.388-45.494-19.309-6.071-5.853-10.605-13.166-17.043-18.504-11.921-9.946-14.775-20.335-9.069-34.524 2.78-6.876 6.511-15.359 4.68-21.651-7.388-25.892 7.681-41.691 24.357-55.808 7.606-6.583 14.775-11.119 16.822-22.235 2.78-14.043 15.359-19.749 27.648-23.698 13.971-4.461 28.378-8.046 42.789-11.119 10.972-2.34 22.235-3.51 33.354-5.266l0.147 1.463c6.364-0.586 13.605-3.145 18.872-1.023 4.901 1.975 11.703 12.214 10.972 13.312-8.411 10.386 1.17 12.435 6.655 15.141 10.751 5.266 21.87 9.946 33.061 14.043 4.389 1.535 11.703 2.926 14.043 0.658 19.895-19.383 40.814-5.413 61.293-3.291 10.239 1.17 20.625 2.561 30.867 2.047 10.093-0.586 22.675-24.138 17.627-32.328-1.317-2.121-5.778-2.926-8.776-3.073-8.486-0.293-16.969 0.73-25.308 0.147-14.043-1.023-26.918-3.95-28.16-22.163-0.147-2.415-5.12-4.536-7.971-6.655-2.705 3.803-8.486 9.946-7.681 11.119 6.583 8.558 0 11.484-5.485 14.41-8.923 4.901-10.972-2.78-13.531-8.339-9.509-21.137-27.795-33.426-45.715-46.152-1.975-1.463-5.12-1.023-7.753-1.463 0.73 2.926 0.44 6.948 2.268 8.63 6.801 6.071 13.824 12.214 21.723 16.529 6.729 3.731 7.827 7.095 3.803 12.947-6.071 8.997-6.729-1.17-9.509-2.926-12.873-8.118-25.38-16.969-38.546-24.65-2.926-1.756-8.046 0-11.996 0.73-4.096 0.877-8.046 4.168-11.777 3.803-21.505-2.268-31.891 12.873-41.619 27.208-10.972 16.239-42.495 22.31-56.978 8.486-10.972-10.461 1.975-22.454-0.293-33.866-0.147-1.098 10.021-5.12 15.652-5.997 5.485-0.805 11.556 1.903 16.822 0.73 5.997-1.317 13.896-3.731 16.529-8.339 4.389-7.899-0.44-14.629-8.997-18.139-2.34-0.951-4.389-2.852-6.436-4.243 2.34-1.463 4.68-3.95 7.169-4.022 27.283-1.317 43.154-27.72 69.192-31.744 1.317-0.219 0.951-6.948 2.705-9.946 2.121-3.803 5.559-6.876 8.486-10.239 2.415 2.561 5.631 4.755 7.169 7.753 7.023 14.482 20.479 9.216 31.451 10.021 8.046 0.586 16.385-1.389 24.65-2.34 1.903-0.219 5.559-0.73 5.631-1.317 0.73-17.334 18.139-17.262 27.355-25.161 5.338-4.536 15.871-2.926 23.917-4.536 2.415-0.586 4.536-2.633 6.729-4.096-2.34-1.975-4.536-5.706-6.948-5.853-1.923-0.167-4.163-0.265-6.423-0.265-5.914 0-11.674 0.656-17.211 1.898l0.522-0.098c-8.193 2.193-15.141 1.756-16.604-6.948-0.73-4.315 4.389-9.656 7.095-14.41 0.586-1.098 2.633-1.245 3.51-2.193 3.291-3.145 6.583-6.583 9.728-9.802-0.951-0.877-2.047-2.705-2.78-2.487-5.778 1.317-12.068 2.047-16.969 4.973-6.364 3.657-10.972 10.679-17.409 13.677-8.776 4.168-17.409 5.12-5.338 16.457 4.608 4.243-9.946 25.82-19.309 28.525-10.314 2.78-22.454 9.216-25.38-9.802-1.317-8.923-6.583-8.851-13.605-3.51-9.288 7.095-17.92 4.096-22.454-6.071-4.168-9.509-4.608-17.992 7.313-24.868 18.651-10.898 34.671-27.576 54.345-35.329 21.672-8.352 46.767-14.084 72.915-16.038l0.885-0.054c14.701-1.317 30.209 5.706 45.35 8.997 13.531 2.926 27.062 5.778 40.521 8.923-81.959-76.158-192.173-122.896-313.3-122.896-26.519 0-52.514 2.24-77.809 6.542l2.721-0.383c7.023 21.795 13.166 22.089 35.254 10.898 3.731-1.821 8.115-2.885 12.749-2.885 0.481 0 0.959 0.010 1.435 0.033l-0.067-0.003c2.705 0.072 5.413 3.438 8.118 5.266-1.682 2.121-2.926 4.755-4.973 6.364-7.313 5.559-15.359 10.093-22.163 16.164-5.997 5.338-12.068 10.239-6.364 21.358 5.12 10.239-3.363 21.065-15.506 23.991-7.169 1.756-9.144 4.901-7.313 11.996 0.805 3.219-1.317 7.095-2.193 10.605-2.633-1.756-5.194-3.657-8.046-5.12-2.78-1.463-5.853-2.193-8.776-3.291 0.951 2.705 2.34 5.338 2.561 8.046 0.147 2.34-0.365 5.997-1.828 6.876-3.657 2.121-7.899 3.073-11.996 4.243-21.212 5.853-42.423 12.142-63.854 17.187-14.41 3.291-18.285 16.164-24.138 25.82-5.997 9.874-8.558 12.068-20.7 7.899-24.868-8.63-41.765-20.847-45.933-49.078-1.17-8.193-11.921-14.775 3.145-19.677 0.805-0.219 1.17-2.047 1.682-3.219-1.828-0.586-4.536-2.34-5.559-1.756-10.239 6.729-12.214 1.903-14.264-7.899l-0.072-0.147c-15.359 11.191-29.841 23.405-43.665 36.424 3.299 1.27 6.148 2.898 8.707 4.886l-0.077-0.057c1.975 1.61 4.243 2.852 6.29 4.243-2.561 2.193-4.901 4.901-7.827 6.218-2.193 0.951-5.338 0.293-8.046-0.072-4.096-0.586-8.193-1.463-12.289-2.193l-1.463 1.463c2.705 2.926 5.413 5.853 7.827 8.923 1.463 2.047 2.193 4.755 3.219 7.169-1.975 0.365-3.878 1.098-5.853 1.023-6.729-0.219-13.459-0.44-20.188-0.951-3.585 4.096-7.169 8.193-10.605 12.435 3.351 2.69 5.991 6.13 7.689 10.070l0.064 0.17c1.17 2.705 14.629 4.168 17.334 1.245 10.239-10.605 14.629-3.585 21.942 3.219 12.654 11.703 26.697 21.942 40.083 32.914 2.121 1.682 6.143 4.68 5.853 5.12-9.509 16.311 2.852 20.625 13.677 26.113 0.951 0.512-0.365 7.827-0.73 7.827-9.656 0.147-19.383-0.293-29.037-0.586 1.463-4.827 2.926-9.656 4.243-14.41 0.73-2.926 1.17-5.853 1.756-8.776-2.487 0.586-5.12 0.951-7.46 1.975-6.583 2.705-13.166 5.338-19.309 8.776-5.266 2.998-8.776 4.68-14.482-0.805-3.363-3.291-11.703-3.145-17.187-1.756-4.755 1.317-8.486 6.511-12.654 9.946 4.461-0.512 9.069-1.756 13.459-1.245 4.315 0.44 11.703 1.975 12.068 4.022 1.975 12.214 12.142 10.605 19.749 13.384 2.852 1.023 5.706 1.756 8.63 2.561-2.78 2.487-5.485 7.095-8.193 7.095-12.507 0-24.575 15.434-38.109 1.023-1.828-2.047-15.359 1.828-16.75 5.485-7.023 19.018-33.061 19.237-37.741 37.815-5.12 20.26-21.065 28.088-34.889 39.204-2.78 2.193-2.78 8.339-3.219 12.726-0.147 1.756 2.34 3.657 2.487 5.631 0.805 7.827 1.023 15.727 1.535 23.48-5.12-5.194-11.119-9.802-14.994-15.799-3.16-4.708-7.347-8.496-12.253-11.103l-0.183-0.087c-5.523 26.514-8.715 57.009-8.776 88.236v0.049l0.072 3.878h0.805c16.311-0.658 17.92 1.098 16.604 17.187-2.047 23.626 2.998 20.919 23.991 25.087 21.723 4.315 30.646-8.265 44.252-16.092 8.046-4.68 10.021-2.34 7.606 6.218-0.586 2.193 1.023 5.12 1.61 7.753 1.975-1.682 4.389-2.998 5.706-5.12 3.657-5.925 6.876-10.972 14.629-4.096 2.121 1.903 6.583 2.193 9.802 1.756 26.55-3.363 44.617 11.631 62.319 27.867 2.487 2.193 6.218 4.901 8.997 4.608 16.676-2.047 25.161 8.118 35.036 19.237 8.704 9.656 7.753 13.384-3.145 17.92-1.975 0.877-3.219 3.585-4.755 5.413 2.633 0.219 5.853 1.463 7.606 0.365 5.853-3.585 9.728-3.219 16.676-0.365 24.138 10.021 49.737 16.604 74.093 26.185 17.846 6.948 22.163 16.092 10.605 30.721-14.343 18.265-24.282 40.636-27.851 65.078l-0.090 0.751c-2.397 13.616-13.281 24.105-26.905 25.876l-0.157 0.018c-14.994 2.633-32.914 6.801-30.353 29.988 0.365 3.657-5.048 8.118-8.193 11.921-5.559 6.948-11.409 13.677-17.187 20.479-2.34 2.705-4.389 6.583-7.313 7.534-7.46 2.705-17.334 1.828-22.454 6.583-4.608 4.168-3.731 13.971-6.143 21.065-0.73 1.975-4.68 4.755-6.583 4.389-1.61-0.365-2.926-0.219-4.389-0.219 78.081 62.841 178.447 100.864 287.694 100.864 0.121 0 0.239 0 0.36 0h-0.018c255.508-0.291 462.557-207.342 462.847-462.819v-0.028z"></path>
</svg>
