<svg width="18" height="18" viewBox="0 0 18 18" fill="none" xmlns="http://www.w3.org/2000/svg">
<path d="M0 4.63032H2.89649C3.54967 4.63032 4.04759 4.67897 4.39024 4.77627C4.85068 4.90833 5.24509 5.1429 5.57347 5.47999C5.90184 5.81707 6.1517 6.23061 6.32302 6.72061C6.49435 7.20712 6.58001 7.80832 6.58001 8.5242C6.58001 9.1532 6.4997 9.69531 6.33908 10.1506C6.14277 10.7066 5.86258 11.1566 5.49851 11.5006C5.22368 11.7613 4.85247 11.9646 4.38489 12.1105C4.0351 12.2183 3.56752 12.2721 2.98215 12.2721H0V4.63032ZM1.58477 5.92306V10.9846H2.768C3.21059 10.9846 3.53004 10.9603 3.72635 10.9116C3.98334 10.8491 4.19572 10.7431 4.36347 10.5936C4.5348 10.4442 4.674 10.1992 4.78108 9.85865C4.88816 9.51461 4.9417 9.0472 4.9417 8.45643C4.9417 7.86566 4.88816 7.41216 4.78108 7.09592C4.674 6.77968 4.52409 6.53295 4.33135 6.35572C4.13861 6.17849 3.89411 6.05859 3.59786 5.99604C3.37656 5.94739 2.94289 5.92306 2.29685 5.92306H1.58477Z" fill="black"/>
<path d="M7.60797 8.49813C7.60797 7.71971 7.72754 7.06638 7.96669 6.53816C8.14515 6.14895 8.38787 5.7997 8.69483 5.49041C9.00535 5.18112 9.34444 4.95177 9.71208 4.80234C10.2011 4.60078 10.765 4.5 11.4039 4.5C12.5604 4.5 13.4848 4.84925 14.1773 5.54775C14.8733 6.24625 15.2213 7.21755 15.2213 8.46164C15.2213 9.69531 14.8769 10.6614 14.188 11.3599C13.4991 12.0549 12.5782 12.4024 11.4253 12.4024C10.2582 12.4024 9.33016 12.0567 8.64128 11.3651C7.95241 10.6701 7.60797 9.71443 7.60797 8.49813ZM9.24093 8.44601C9.24093 9.31131 9.44616 9.96811 9.85663 10.4164C10.2671 10.8612 10.7882 11.0836 11.42 11.0836C12.0518 11.0836 12.5693 10.863 12.9726 10.4216C13.3795 9.9768 13.583 9.31131 13.583 8.42516C13.583 7.54942 13.3849 6.8961 12.9887 6.46518C12.5961 6.03427 12.0732 5.81881 11.42 5.81881C10.7668 5.81881 10.2403 6.03774 9.84057 6.47561C9.44081 6.91 9.24093 7.5668 9.24093 8.44601Z" fill="black"/>
<path d="M16.4152 12.2721V4.63032H18V12.2721H16.4152Z" fill="black"/>
</svg>
