<svg width="18" height="18" viewBox="0 0 18 18" fill="none" xmlns="http://www.w3.org/2000/svg">
<g clip-path="url(#clip0_12864_33450)">
<path d="M12.9784 1.4074C11.6985 0.6443 10.2038 0.205587 8.60858 0.205587C3.88846 0.205587 0.0494075 4.04547 0.0494075 8.76476C0.0494075 10.36 0.488053 11.8547 1.2511 13.1347L1.8539 12.5319C1.32431 11.5861 0.987917 10.5184 0.898068 9.38144C1.00047 9.59193 1.37592 9.79997 1.48238 9.71789C1.68167 9.56101 1.7347 9.69479 1.78095 9.81144C1.78789 9.82894 1.79467 9.84605 1.80177 9.86174C1.9066 10.0893 1.81803 10.299 1.62949 10.4233C1.46684 10.5311 1.47164 10.6809 1.47638 10.829C1.48 10.9421 1.48359 11.0542 1.4125 11.1457C1.4092 11.1494 1.42366 11.166 1.44019 11.185C1.45218 11.1988 1.46526 11.2138 1.47345 11.2261C1.50388 11.2729 1.53533 11.3191 1.56677 11.3653C1.6403 11.4734 1.7138 11.5814 1.77414 11.6958C1.78369 11.7139 1.79316 11.7321 1.80262 11.7501C1.89773 11.9319 1.99137 12.1109 2.14029 12.2455L4.42575 9.96C4.34968 9.92288 4.26237 9.90542 4.1545 9.91863C4.10736 9.92431 4.04478 9.87962 4.00415 9.84223C3.70833 9.56998 3.40602 9.31968 2.9623 9.37657C2.90867 9.38388 2.83309 9.37819 2.79733 9.3465C2.66811 9.2311 2.61529 9.31562 2.55352 9.41639C2.53905 9.43977 2.51504 9.45743 2.49064 9.47538C2.47942 9.48363 2.46812 9.49195 2.45763 9.50091C2.45465 9.48628 2.44959 9.4712 2.44456 9.45621C2.43451 9.42623 2.42458 9.39662 2.43162 9.37169C2.47225 9.22866 2.43893 9.18965 2.30403 9.26686C2.25027 9.29796 2.20091 9.33342 2.15208 9.36849C1.99423 9.48189 1.84194 9.59129 1.56449 9.53667C1.51919 9.52765 1.47833 9.52054 1.44159 9.51415C1.19358 9.471 1.1333 9.46051 1.16303 9.11652C1.18579 8.84834 1.15816 8.81909 0.885913 8.82965H0.872911C0.872911 8.81868 0.872504 8.80791 0.872098 8.79714C0.871692 8.78638 0.871286 8.77561 0.871286 8.76464C0.871286 8.26077 0.921672 7.7691 1.01594 7.28881C1.0964 7.33269 1.16954 7.39202 1.22399 7.47572C1.26892 7.54396 1.33014 7.60159 1.39136 7.65922C1.41982 7.68601 1.44828 7.7128 1.4751 7.74065C1.47253 7.69957 1.47037 7.65833 1.4682 7.61701C1.46351 7.52753 1.4588 7.43764 1.4499 7.34813C1.44838 7.33286 1.43842 7.31759 1.42863 7.30257C1.41758 7.28562 1.40673 7.26899 1.40846 7.25305C1.40962 7.24138 1.41061 7.22896 1.41161 7.21619C1.41693 7.14891 1.42303 7.07168 1.46128 7.04095C1.50568 7.00527 1.55136 6.97163 1.59681 6.93816C1.78843 6.79704 1.97581 6.65905 2.04479 6.38513C2.08442 6.22741 2.21635 6.14877 2.35202 6.06789C2.48339 5.98958 2.61827 5.90918 2.67624 5.75286C2.699 5.69191 2.92493 5.6277 2.95581 5.66102C3.10571 5.8206 3.24425 5.76207 3.38152 5.70408C3.45187 5.67435 3.5219 5.64477 3.59295 5.64477C3.62367 5.64477 3.65401 5.6096 3.68473 5.574C3.69953 5.55685 3.71442 5.5396 3.72948 5.52612C3.71751 5.52267 3.70548 5.51932 3.69346 5.51597C3.65733 5.50591 3.6212 5.49585 3.58645 5.48305C3.55595 5.47198 3.52304 5.46504 3.49014 5.4581C3.38541 5.43602 3.28084 5.41398 3.25487 5.25876C3.24918 5.22462 3.12565 5.19862 3.05414 5.19212C3.00242 5.18643 2.94951 5.19466 2.89652 5.2029C2.87374 5.20645 2.85094 5.20999 2.82822 5.21243C2.84961 5.19477 2.87032 5.17437 2.89104 5.15395C2.93801 5.10767 2.98506 5.06131 3.04032 5.04665C3.13134 5.02308 3.27193 5.02064 3.32801 5.07509C3.42391 5.16774 3.48161 5.13929 3.57019 5.08972C3.65687 5.04087 3.74938 5.00193 3.84179 4.96303C3.85855 4.95598 3.8753 4.94892 3.89202 4.94181C3.91966 4.92997 3.94925 4.9236 3.97863 4.91728C3.99158 4.9145 4.00449 4.91172 4.01717 4.90849C4.01387 4.92498 4.01094 4.94156 4.00801 4.95818C4.00228 4.99069 3.99652 5.02331 3.98791 5.05558C3.97035 5.11999 3.9507 5.18439 3.93106 5.24878C3.92616 5.26484 3.92126 5.2809 3.9164 5.29696C3.95471 5.29811 3.99303 5.29944 4.03133 5.30077C4.15551 5.30508 4.27958 5.30939 4.40318 5.30752C4.40806 5.30752 4.43 5.18481 4.41456 5.17668C4.39984 5.16916 4.38496 5.16178 4.37011 5.15442C4.2021 5.07109 4.03915 4.99028 4.187 4.73864C4.19013 4.73363 4.15069 4.70248 4.11646 4.67545C4.10632 4.66745 4.09664 4.65981 4.08866 4.65331C4.02135 4.59869 3.95309 4.54494 3.8848 4.49117C3.72552 4.36576 3.56608 4.24022 3.4182 4.10314C3.4041 4.09007 3.39063 4.07694 3.37757 4.06421C3.27773 3.96687 3.20189 3.89292 3.05168 4.05031C3.007 4.09826 2.78107 4.07469 2.76157 4.03C2.72743 3.95198 2.68274 3.89834 2.63154 3.85771C2.68924 3.78701 2.74938 3.71874 2.80951 3.65048C2.90525 3.65741 3.00157 3.6608 3.09747 3.66417C3.11392 3.66475 3.13036 3.66532 3.14678 3.66592C3.1698 3.66707 3.19283 3.66129 3.21585 3.65551C3.22533 3.65313 3.23482 3.65075 3.2443 3.64885C3.23929 3.63692 3.23477 3.62457 3.23024 3.61221C3.21936 3.58248 3.20846 3.55269 3.19066 3.52858C3.15567 3.48379 3.11707 3.44263 3.07797 3.40092C3.07166 3.39419 3.06533 3.38745 3.05901 3.38067C3.06348 3.3762 3.06754 3.37194 3.0716 3.36767C3.07566 3.3634 3.07973 3.35914 3.0842 3.35466L3.09181 3.35619C3.15829 3.36949 3.22408 3.38265 3.29062 3.39205C3.29496 3.39269 3.2994 3.39337 3.30389 3.39407C3.34481 3.40038 3.39103 3.4075 3.42471 3.39286C3.45967 3.37771 3.48961 3.34962 3.51963 3.32145C3.53149 3.31033 3.54336 3.29919 3.55555 3.28884C3.54499 3.28196 3.53412 3.27523 3.52321 3.26846C3.49803 3.25286 3.47258 3.23709 3.44991 3.21895C3.40683 3.184 3.35726 3.15881 3.30525 3.13768C3.53605 2.91988 3.77903 2.7159 4.03503 2.52817L4.03665 2.53061C4.07078 2.69477 4.10329 2.77604 4.27557 2.66389C4.2873 2.65662 4.31209 2.66818 4.33647 2.67954C4.34756 2.68471 4.35856 2.68984 4.36822 2.69314C4.36544 2.69894 4.36298 2.70592 4.36052 2.7129C4.35504 2.72842 4.34955 2.74398 4.34059 2.74678C4.16226 2.80412 4.19957 2.87602 4.24385 2.96135C4.26233 2.99696 4.28202 3.0349 4.28776 3.07509C4.35683 3.54725 4.63965 3.75124 5.05574 3.89589C5.2581 3.96578 5.30118 3.9284 5.40114 3.76424C5.42057 3.73255 5.43866 3.69879 5.45699 3.66458C5.5322 3.52426 5.61148 3.37633 5.80422 3.3319C6.07567 3.26865 6.34434 3.19286 6.61268 3.11717C6.69942 3.0927 6.78613 3.06824 6.87289 3.04422C6.88162 3.04183 6.8904 3.03948 6.89921 3.03712C6.95926 3.02105 7.02036 3.0047 7.0728 2.97352C7.09719 2.9597 7.10612 2.89794 7.10287 2.85974C7.10063 2.8278 7.08873 2.79701 7.07676 2.76605C7.07137 2.75212 7.06597 2.73815 7.06143 2.72403C7.0765 2.72955 7.09172 2.73469 7.10694 2.73982C7.14094 2.7513 7.17489 2.76275 7.2069 2.77848C7.23912 2.79486 7.26914 2.81528 7.29893 2.83555C7.31347 2.84544 7.32795 2.85529 7.34261 2.86462C7.34685 2.84668 7.35315 2.82812 7.35947 2.80949C7.37377 2.76738 7.3882 2.72489 7.37918 2.68827C7.3483 2.5688 7.38081 2.51598 7.50108 2.48672C7.70344 2.43796 7.84485 2.25673 7.75952 2.08607C7.66782 1.90581 7.75904 1.82457 7.85531 1.73883C7.85886 1.73566 7.86242 1.7325 7.86598 1.72932C7.93559 1.66715 8.01313 1.61442 8.09076 1.56162C8.13998 1.52815 8.18924 1.49464 8.23655 1.45869C8.25921 1.4413 8.27573 1.41672 8.29229 1.39206C8.30127 1.3787 8.31026 1.36532 8.32025 1.35304C8.30584 1.34326 8.2915 1.33095 8.27717 1.31865C8.24626 1.2921 8.21537 1.26557 8.18372 1.26446C8.10571 1.26121 8.01794 1.27665 7.94886 1.3116C7.5791 1.49932 7.47589 1.49445 7.35887 1.12956C7.76601 1.06292 8.18291 1.02716 8.60876 1.02716C9.97603 1.02716 11.2615 1.38426 12.3765 2.00926L12.9784 1.4074Z" fill="black"/>
<path fill-rule="evenodd" clip-rule="evenodd" d="M13.9962 2.11875L13.411 2.70398C13.5625 2.82441 13.7094 2.95039 13.8513 3.0816C13.6525 3.03495 13.4536 2.9921 13.2542 2.94913C13.23 2.9439 13.2058 2.93868 13.1815 2.93345L12.2114 3.90355C12.3168 3.88517 12.4284 3.88709 12.5356 3.89183C12.5637 3.89296 12.5902 3.92278 12.6165 3.95237C12.6283 3.96561 12.64 3.9788 12.6518 3.98936C12.641 3.99628 12.6304 4.00419 12.6198 4.01213C12.5942 4.03122 12.5683 4.05049 12.5396 4.05681C12.493 4.06636 12.4415 4.06931 12.3904 4.07223C12.2936 4.07777 12.1983 4.08322 12.1398 4.1332C12.0905 4.17553 12.0271 4.20417 11.9633 4.23298C11.8276 4.29434 11.69 4.35649 11.6823 4.55335C11.6815 4.56229 11.6205 4.57204 11.588 4.5761C11.5693 4.57821 11.5505 4.58065 11.5317 4.58327L10.3534 5.76156L10.356 5.76099C10.3666 5.75875 10.3778 5.75616 10.3892 5.7535C10.4486 5.73971 10.5157 5.72414 10.5559 5.74798C10.6953 5.82924 10.8301 5.9183 10.9648 6.00735C11.0431 6.05902 11.1213 6.11069 11.2004 6.16083C11.2141 6.16949 11.2247 6.19048 11.2356 6.21183C11.2613 6.2626 11.2881 6.31542 11.3596 6.20959C11.4271 6.11125 11.4092 6.05517 11.2962 5.99341C11.1638 5.92109 11.0468 5.81788 10.933 5.71629C10.9123 5.69726 10.9078 5.65934 10.9032 5.62139C10.9012 5.60423 10.8991 5.58707 10.8956 5.57164C10.9102 5.57434 10.9257 5.57542 10.9412 5.5765C10.9723 5.57867 11.0031 5.58082 11.0248 5.59602C11.0375 5.60507 11.0503 5.61412 11.063 5.62316C11.3496 5.82675 11.6362 6.03035 11.7887 6.36805C11.7929 6.3773 11.7971 6.3869 11.8013 6.39662C11.8391 6.48424 11.8808 6.58099 12.0155 6.50783C12.0202 6.50528 12.025 6.50273 12.0298 6.50017C12.1181 6.45306 12.2121 6.4029 12.1073 6.26646C12.0979 6.25371 12.1399 6.20163 12.182 6.14943C12.2016 6.12511 12.2212 6.10076 12.2357 6.08036C12.25 6.09166 12.268 6.10281 12.286 6.11402C12.3264 6.13907 12.3673 6.16443 12.369 6.19251C12.3893 6.49644 12.6046 6.5452 12.8387 6.56308C12.8951 6.56701 12.9518 6.56645 13.0087 6.56469L13.602 5.97143C13.4198 5.964 13.2369 5.99041 13.0524 6.0341C12.989 6.04953 12.8679 6.02434 12.8525 5.98533C12.8265 5.9252 12.8508 5.82768 12.8858 5.76266C12.921 5.69797 12.9706 5.64107 13.0203 5.58409C13.0405 5.56091 13.0607 5.53772 13.08 5.51399C13.1588 5.41809 13.2572 5.37014 13.3376 5.49367C13.453 5.66921 13.5554 5.68222 13.6871 5.51968C13.7789 5.40509 13.8358 5.40916 13.9049 5.55869C13.9155 5.58167 13.9332 5.60097 13.955 5.61837L15.658 3.91542C15.192 3.24022 14.6317 2.63492 13.9962 2.11875ZM13.6959 3.26309C13.7692 3.2559 13.8425 3.24871 13.9154 3.23847C13.935 3.23612 13.9523 3.21723 13.9695 3.19844L13.9715 3.1962C14.0048 3.22707 14.0382 3.25798 14.0698 3.28966C14.0113 3.31242 13.9553 3.34899 13.9244 3.39206C13.8393 3.51235 13.7371 3.48934 13.636 3.4666C13.5671 3.45108 13.4987 3.43569 13.4368 3.46601C13.4311 3.46926 13.375 3.39694 13.3709 3.35712C13.3685 3.33761 13.4278 3.29535 13.4628 3.28966C13.5402 3.27836 13.618 3.27073 13.6959 3.26309Z" fill="black"/>
<path d="M12.4754 7.09804C12.4264 7.08775 12.3775 7.07528 12.3285 7.06281C12.0741 6.99807 11.8195 6.93328 11.5741 7.17259C11.5351 7.21079 11.4116 7.18803 11.3393 7.16203C11.1516 7.09376 10.9663 7.01493 10.7867 6.92635C10.7744 6.92026 10.7609 6.91439 10.747 6.90838C10.6574 6.86942 10.5534 6.82426 10.6745 6.67362C10.6883 6.65574 10.5738 6.48427 10.4917 6.45176C10.4298 6.4268 10.3526 6.44025 10.2754 6.45368C10.2419 6.4595 10.2085 6.46531 10.1764 6.46802C10.176 6.46395 10.1753 6.46009 10.1747 6.45623C10.1741 6.45237 10.1735 6.44851 10.1731 6.44445C10.1109 6.45427 10.0484 6.4629 9.98574 6.47154C9.8618 6.48863 9.73763 6.50576 9.61561 6.53222C9.60161 6.53525 9.5876 6.5383 9.57359 6.54137L7.73858 8.37639C7.74188 8.39049 7.74558 8.40477 7.7497 8.41925C7.77889 8.5191 7.72532 8.6509 7.68024 8.7618C7.67763 8.76824 7.67504 8.77461 7.6725 8.7809C7.5766 9.01738 7.62455 9.1921 7.82365 9.35789C7.8835 9.40731 7.93374 9.46761 7.98411 9.52806C8.02401 9.57596 8.064 9.62396 8.1089 9.66671C8.15252 9.70765 8.19353 9.75506 8.23461 9.80256C8.39332 9.98604 8.55323 10.1709 8.86956 9.99016C8.89019 9.97843 8.91841 9.98132 8.94749 9.9843C8.96879 9.98649 8.99056 9.98872 9.01015 9.98528C9.06566 9.97485 9.12149 9.96521 9.17736 9.95558C9.3391 9.92768 9.50121 9.89972 9.65705 9.852C9.68732 9.8428 9.71668 9.8346 9.74504 9.82835L12.4754 7.09804Z" fill="black"/>
<path d="M4.3525 15.2209C4.16065 15.094 3.97473 14.9587 3.79527 14.8158C3.80032 14.8158 3.80532 14.8157 3.81033 14.8156C3.82876 14.8152 3.84733 14.8147 3.86842 14.8199C3.8993 14.8264 3.96594 14.78 3.97813 14.7459C3.99269 14.7028 4.00008 14.6535 4.00737 14.6048C4.02002 14.5205 4.03237 14.438 4.08133 14.3932C4.13401 14.3445 4.21703 14.3315 4.3021 14.3181C4.35485 14.3098 4.40839 14.3014 4.45598 14.2843C4.49155 14.2721 4.51876 14.2355 4.5457 14.1994C4.5563 14.1851 4.56687 14.171 4.57788 14.1583C4.60347 14.1282 4.62916 14.0983 4.65485 14.0683C4.72627 13.985 4.79765 13.9017 4.86638 13.8162C4.87936 13.8004 4.89477 13.7839 4.91049 13.767C4.95775 13.7163 5.00779 13.6626 5.00291 13.6163C4.96066 13.2295 5.25972 13.1596 5.50921 13.1157C5.78389 13.0678 5.92855 12.88 5.96268 12.6817C6.03421 12.2705 6.16424 11.917 6.42916 11.583C6.6234 11.3368 6.55025 11.1848 6.252 11.0678C6.06424 10.9944 5.87269 10.9315 5.68124 10.8685C5.57244 10.8327 5.46367 10.797 5.35564 10.7593L1.96243 14.1525C2.47858 14.788 3.08387 15.3484 3.75909 15.8143L4.3525 15.2209Z" fill="black"/>
<path d="M4.84919 16.4534L5.46846 15.8341C6.42835 16.263 7.49072 16.5021 8.60798 16.5021C12.8754 16.5021 16.3462 13.0311 16.3462 8.7647C16.3462 8.4502 16.325 8.14129 16.2885 7.83655C16.1121 7.84386 15.9406 7.8146 15.8008 7.64801C15.7765 7.61794 15.7098 7.59275 15.6773 7.60575C15.4358 7.69458 15.2909 7.56293 15.1429 7.42845C15.1176 7.40546 15.0922 7.38238 15.0662 7.36032C15.0288 7.32796 14.9761 7.31399 14.9234 7.3C14.8993 7.2936 14.8751 7.28721 14.8525 7.27905C14.8566 7.30205 14.8588 7.32596 14.8611 7.34978C14.8659 7.40085 14.8706 7.45151 14.8939 7.49196C14.9308 7.55692 14.9787 7.61524 15.0267 7.67371C15.0537 7.70667 15.0808 7.73969 15.106 7.77397C15.2141 7.91944 15.3149 8.02102 15.5042 7.86499C15.663 7.73294 15.774 7.83373 15.8788 7.92886C15.9139 7.96078 15.9484 7.99207 15.9837 8.01371C16.1333 8.10594 16.0183 8.22404 15.9474 8.29682C15.9439 8.30036 15.9406 8.30378 15.9374 8.30709C15.93 8.31472 15.9226 8.32236 15.9152 8.33002C15.7619 8.48815 15.6024 8.65271 15.4148 8.75813C15.2066 8.87514 14.9785 8.95719 14.7515 9.03884C14.6994 9.05757 14.6474 9.07629 14.5957 9.09539C14.3242 9.19617 14.2771 9.15309 14.182 8.89223C14.1317 8.75452 14.0579 8.62588 13.984 8.4972C13.9541 8.44515 13.9243 8.39309 13.8959 8.34043C13.8121 8.18491 13.7274 8.02982 13.6427 7.87485C13.6174 7.82849 13.5921 7.78214 13.5668 7.73579L15.2555 6.0471C15.2875 6.08355 15.2628 6.11836 15.1905 6.18124C15.0126 6.33646 15.0304 6.41043 15.2417 6.49006C15.2976 6.51147 15.3574 6.5233 15.4074 6.5332C15.4258 6.53684 15.4429 6.54021 15.4579 6.5437C15.705 6.54858 15.7651 6.48112 15.692 6.26902C15.6539 6.15873 15.5987 6.05401 15.5436 5.94957C15.5216 5.90775 15.4996 5.86598 15.4787 5.82391L16.2971 5.00549C16.8546 6.14087 17.1678 7.41695 17.1678 8.76476C17.1678 13.484 13.3287 17.3239 8.60858 17.3239C7.26063 17.3239 5.98454 17.0108 4.84919 16.4534Z" fill="black"/>
<path d="M13.4176 7.88497C13.6208 8.25447 13.8264 8.62273 14.0341 8.98895C14.053 9.02217 14.0816 9.05239 14.1097 9.08208C14.1503 9.12502 14.1898 9.16682 14.1975 9.21486C14.2436 9.50297 14.406 9.45545 14.5929 9.40072C14.6 9.39864 14.6072 9.39655 14.6144 9.39447C14.7179 9.36425 14.8249 9.34752 14.9321 9.33074C14.9807 9.32315 15.0292 9.31555 15.0776 9.3067C15.0621 9.35639 15.0486 9.40712 15.0351 9.45784C15.0041 9.57467 14.973 9.69141 14.9175 9.79512C14.7858 10.043 14.6249 10.2584 14.3673 10.4209C14.1471 10.5615 13.9569 10.7931 13.835 11.028C13.7875 11.1192 13.8155 11.2498 13.8437 11.3811C13.8569 11.4429 13.8702 11.5047 13.8756 11.5627C13.8812 11.6213 13.8897 11.6804 13.8983 11.7396C13.9198 11.889 13.9414 12.0384 13.9147 12.1787C13.8911 12.303 13.7416 12.4225 13.6221 12.5046C13.4311 12.6354 13.2751 12.7565 13.3848 13.0206C13.4051 13.0686 13.4035 13.175 13.3816 13.1848C13.1914 13.2659 13.1186 13.4307 13.0454 13.5965C13.0019 13.695 12.9583 13.7938 12.8899 13.8756C12.5803 14.2466 12.18 14.293 11.7707 14.3405C11.7524 14.3426 11.734 14.3447 11.7156 14.3469C11.6457 14.355 11.5368 14.2266 11.4856 14.1381C11.4141 14.013 11.3584 13.8789 11.3027 13.7448C11.2824 13.6958 11.262 13.6469 11.241 13.5984C11.2125 13.5342 11.1841 13.47 11.1621 13.4042C11.1379 13.3317 11.1166 13.2578 11.0953 13.1839C11.0517 13.0326 11.0083 12.8816 10.9395 12.7435C10.7899 12.4469 10.733 12.2006 10.9516 11.8894C11.0574 11.7401 10.9808 11.5503 10.9077 11.3692C10.8853 11.3138 10.8632 11.2591 10.8468 11.2067C10.8159 11.1092 10.7501 11.006 10.6713 10.9426C10.603 10.8878 10.5583 10.8306 10.5314 10.7712L13.4176 7.88497Z" fill="black"/>
<path d="M8.50954 5.87621L8.57027 5.81547C8.53172 5.83204 8.50503 5.84724 8.50634 5.85443C8.50776 5.86168 8.50881 5.86894 8.50954 5.87621Z" fill="black"/>
<path d="M9.10492 5.28083L9.20098 5.18477C9.19619 5.1851 9.19138 5.18538 9.18655 5.18561C9.15831 5.18674 9.13045 5.20751 9.10299 5.22798C9.09095 5.23696 9.07898 5.24588 9.06709 5.25306C9.07801 5.26043 9.08878 5.2686 9.09962 5.27681L9.10492 5.28083Z" fill="black"/>
<path d="M10.2227 4.16308C10.1952 4.13608 10.1714 4.10037 10.152 4.05681C10.0821 3.89753 10.0748 3.75612 10.2731 3.64072C10.3993 3.56762 10.5182 3.47866 10.6367 3.38999C10.8121 3.25883 10.9866 3.12831 11.1825 3.05073C11.2596 3.02001 11.3383 2.99238 11.4182 2.96753L10.2227 4.16308Z" fill="black"/>
<path d="M14.7737 11.9941C14.7629 11.9785 14.7521 11.9628 14.7436 11.9472C14.7291 11.9554 14.714 11.963 14.699 11.9706C14.666 11.9872 14.633 12.0037 14.6063 12.0261C14.4803 12.1277 14.3568 12.2317 14.2381 12.3406C14.191 12.3845 14.1341 12.4438 14.1284 12.5007C14.1168 12.6068 14.1189 12.7141 14.121 12.8215C14.1219 12.8638 14.1227 12.9062 14.1227 12.9484C14.1122 12.9533 14.1012 12.9582 14.0903 12.9631C14.0793 12.9679 14.0683 12.9728 14.0577 12.9777C14.0827 13.017 14.1056 13.0645 14.1285 13.112C14.1786 13.2159 14.2288 13.3199 14.3007 13.3377C14.4795 13.3829 14.5267 13.2251 14.5692 13.0828C14.5763 13.0589 14.5833 13.0355 14.5908 13.0135C14.6069 12.9662 14.6233 12.9189 14.6397 12.8716C14.6889 12.7296 14.7383 12.5872 14.7786 12.4421C14.8094 12.3308 14.8192 12.2122 14.82 12.0959C14.8206 12.062 14.7971 12.028 14.7737 11.9941Z" fill="black"/>
<path d="M15.7566 0.358132C16.2342 -0.119378 17.0084 -0.119377 17.4859 0.358132C17.9634 0.835642 17.9634 1.60984 17.4859 2.08735L1.93134 17.6419C1.45383 18.1194 0.679635 18.1194 0.202126 17.6419C-0.275383 17.1644 -0.275383 16.3902 0.202126 15.9127L15.7566 0.358132Z" fill="black"/>
</g>
<defs>
<clipPath id="clip0_12864_33450">
<rect width="18" height="18" fill="white"/>
</clipPath>
</defs>
</svg>
