<svg width="18" height="18" viewBox="0 0 18 18" fill="none" xmlns="http://www.w3.org/2000/svg">
<path d="M8.9998 0C8.11035 0 7.34043 0.516797 6.9748 1.26562C6.72871 1.17422 6.46504 1.125 6.1873 1.125C4.94629 1.125 3.9373 2.13398 3.9373 3.375V9.19336L3.84238 9.09844C2.96348 8.21953 1.53965 8.21953 0.660742 9.09844C-0.218164 9.97734 -0.218164 11.4012 0.660742 12.2801L3.74395 15.3633C5.43145 17.0508 7.72012 18 10.1072 18H10.4061H10.6873C10.74 18 10.7928 17.9965 10.8455 17.9859C14.0693 17.768 16.6463 15.1945 16.8607 11.9707C16.8713 11.918 16.8748 11.8652 16.8748 11.8125V5.625C16.8748 4.38398 15.8658 3.375 14.6248 3.375C14.4314 3.375 14.2416 3.39961 14.0623 3.44531V3.375C14.0623 2.13398 13.0533 1.125 11.8123 1.125C11.5346 1.125 11.2709 1.17422 11.0248 1.26562C10.6592 0.516797 9.88926 0 8.9998 0ZM8.4373 3.37852V3.375V2.25C8.4373 1.94062 8.69043 1.6875 8.9998 1.6875C9.30918 1.6875 9.5623 1.94062 9.5623 2.25V3.37148V3.375V8.15625C9.5623 8.62383 9.93848 9 10.4061 9C10.8736 9 11.2498 8.62383 11.2498 8.15625V3.375C11.2498 3.375 11.2498 3.375 11.2498 3.37148C11.2498 3.06211 11.5029 2.80898 11.8123 2.80898C12.1217 2.80898 12.3748 3.06211 12.3748 3.37148V5.33672V5.34023V8.15273C12.3748 8.62031 12.751 8.99648 13.2186 8.99648C13.6861 8.99648 14.0623 8.62031 14.0623 8.15273V5.625V5.62148C14.0623 5.31211 14.3154 5.05898 14.6248 5.05898C14.9342 5.05898 15.1873 5.31211 15.1873 5.62148V11.7C15.1838 11.7211 15.1838 11.7457 15.1803 11.7668C15.0607 14.2172 13.0955 16.1824 10.6451 16.302C10.624 16.302 10.5994 16.3055 10.5783 16.309H10.4061H10.1072C8.1666 16.309 6.30684 15.5391 4.93574 14.168L1.85254 11.0848C1.63457 10.8668 1.63457 10.5082 1.85254 10.2902C2.07051 10.0723 2.4291 10.0723 2.64707 10.2902L4.1834 11.8266C4.42598 12.0691 4.78809 12.1395 5.10449 12.0094C5.4209 11.8793 5.6248 11.5699 5.6248 11.2289V3.375C5.6248 3.06562 5.87793 2.8125 6.1873 2.8125C6.49668 2.8125 6.7498 3.06211 6.7498 3.37148V8.15625C6.7498 8.62383 7.12598 9 7.59355 9C8.06113 9 8.4373 8.62383 8.4373 8.15625V3.37852Z" fill="black"/>
</svg>
