<svg width="18" height="18" viewBox="0 0 18 18" fill="none" xmlns="http://www.w3.org/2000/svg">
<g clip-path="url(#clip0_12864_33449)">
<path d="M4.80289 2.98011V4.58172C4.80289 4.76982 4.57547 4.86402 4.44246 4.73101L2.23661 2.52516C2.09919 2.38774 2.09919 2.16494 2.23661 2.02752L4.44247 -0.178338C4.57547 -0.311344 4.80289 -0.217143 4.80289 -0.0290443V1.57256H7.61799C12.2822 1.57256 16.0633 5.19611 16.0633 9.66598C16.0633 14.1359 12.2822 17.7594 7.61799 17.7594H3.60647C3.48987 17.7594 3.39534 17.6649 3.39534 17.5483V16.563C3.39534 16.4464 3.48987 16.3518 3.60647 16.3518H7.61799C11.5048 16.3518 14.6557 13.3909 14.6557 9.66598C14.6557 5.94109 11.5048 2.98011 7.61799 2.98011H4.80289Z" fill="black"/>
<path d="M5.89813 13.4192H5.06387V8.02689C4.86302 8.22121 4.59884 8.41553 4.27132 8.60985C3.94688 8.80417 3.65489 8.9499 3.39534 9.04706V8.22905C3.86191 8.00652 4.26977 7.73698 4.61892 7.42043C4.96808 7.10388 5.21527 6.79674 5.36049 6.49899H5.89813V13.4192Z" fill="black"/>
<path d="M7.33563 11.6139L8.2116 11.5387C8.27649 11.9712 8.42635 12.2972 8.66118 12.5166C8.8991 12.7328 9.18491 12.841 9.51861 12.841C9.9203 12.841 10.2602 12.6874 10.5383 12.3802C10.8164 12.0731 10.9554 11.6657 10.9554 11.1579C10.9554 10.6753 10.821 10.2945 10.5522 10.0155C10.2864 9.73658 9.93729 9.59711 9.50471 9.59711C9.23589 9.59711 8.99334 9.65979 8.77705 9.78516C8.56076 9.90739 8.39081 10.0672 8.26722 10.2647L7.48394 10.1613L8.14208 6.62122H11.5208V7.42984H8.80949L8.44334 9.28213C8.8512 8.99378 9.27915 8.84961 9.72718 8.84961C10.3204 8.84961 10.821 9.05803 11.2289 9.47488C11.6367 9.89172 11.8406 10.4277 11.8406 11.0827C11.8406 11.7064 11.6614 12.2455 11.303 12.6999C10.8673 13.2578 10.2725 13.5367 9.51861 13.5367C8.90064 13.5367 8.39545 13.3612 8.00304 13.0102C7.61371 12.6592 7.39124 12.1938 7.33563 11.6139Z" fill="black"/>
</g>
<defs>
<clipPath id="clip0_12864_33449">
<rect width="18" height="18" fill="white"/>
</clipPath>
</defs>
</svg>
