<svg width="18" height="18" viewBox="0 0 18 18" fill="none" xmlns="http://www.w3.org/2000/svg">
<path d="M8.94611 3.09336C8.71592 3.03903 8.48467 3.17913 8.42961 3.40628L8.13229 4.63283C8.07723 4.85998 8.2192 5.08817 8.4494 5.1425C8.67959 5.19683 8.91084 5.05674 8.9659 4.82959L9.26322 3.60303C9.31828 3.37588 9.17631 3.1477 8.94611 3.09336Z" fill="black"/>
<path d="M6.70012 5.68209C6.83427 5.48967 6.78494 5.22637 6.58993 5.094L5.53697 4.3792C5.34197 4.24683 5.07514 4.29551 4.94099 4.48793C4.80684 4.68035 4.85617 4.94365 5.05117 5.07602L6.10413 5.79082C6.29913 5.92319 6.56597 5.87451 6.70012 5.68209Z" fill="black"/>
<path d="M9.71123 13.9604C9.6223 14.1769 9.37239 14.2812 9.15304 14.1934C8.93369 14.1057 8.82797 13.8591 8.9169 13.6426L9.3971 12.4739C9.48603 12.2574 9.73594 12.1531 9.95529 12.2409C10.1746 12.3286 10.2804 12.5752 10.1914 12.7917L9.71123 13.9604Z" fill="black"/>
<path d="M11.7668 11.966C11.6049 12.1364 11.6137 12.404 11.7864 12.5637L12.7189 13.4261C12.8916 13.5858 13.1628 13.5772 13.3247 13.4068C13.4866 13.2363 13.4778 12.9687 13.3051 12.809L12.3725 11.9466C12.1998 11.7869 11.9286 11.7956 11.7668 11.966Z" fill="black"/>
<path d="M11.5416 5.05266C10.1597 5.05266 9.03004 6.19389 9.03004 7.58999C9.02794 7.73512 9.084 7.87529 9.18491 7.97936C9.28582 8.08272 9.42387 8.14148 9.56823 8.14148C9.7126 8.14148 9.85065 8.08272 9.95156 7.97936C10.0525 7.87529 10.1085 7.73511 10.1064 7.58999C10.1064 6.77725 10.7371 6.14008 11.5416 6.14008H15.4884C16.2929 6.14008 16.9236 6.77725 16.9236 7.58999C16.9236 8.40273 16.2929 9.03989 15.4884 9.03989H11.721C11.5767 9.03777 11.4379 9.0937 11.3356 9.19635C11.2333 9.2983 11.1751 9.43776 11.1751 9.5836C11.1751 9.72873 11.2333 9.8682 11.3356 9.97015C11.4379 10.0728 11.5767 10.1287 11.721 10.1273H15.4884C16.8703 10.1273 18 8.98608 18 7.58998C18 6.19389 16.8703 5.05265 15.4884 5.05265L11.5416 5.05266Z" fill="black"/>
<path d="M2.51159 6.74428C1.12966 6.74428 0 7.88552 0 9.28161C0 10.6777 1.12966 11.8189 2.51159 11.8189H6.45838C7.84031 11.8189 8.96997 10.6777 8.96997 9.28161C8.97207 9.13577 8.91601 8.9956 8.81509 8.89224C8.71418 8.78817 8.57614 8.73012 8.43177 8.73012C8.28741 8.73012 8.14936 8.78817 8.04845 8.89224C7.94754 8.9956 7.89148 9.13579 7.89358 9.28161C7.89358 10.0944 7.26288 10.7315 6.45838 10.7315H2.5116C1.7071 10.7315 1.0764 10.0944 1.0764 9.28161C1.0764 8.46887 1.7071 7.83171 2.5116 7.83171H6.27898C6.42335 7.83383 6.56209 7.77719 6.66441 7.67525C6.76742 7.57259 6.82488 7.43313 6.82488 7.288C6.82488 7.14216 6.76742 7.00269 6.66441 6.90075C6.56209 6.7988 6.42333 6.74216 6.27898 6.74429L2.51159 6.74428Z" fill="black"/>
</svg>
