<svg width="18" height="18" viewBox="0 0 18 18" fill="none" xmlns="http://www.w3.org/2000/svg">
<path fill-rule="evenodd" clip-rule="evenodd" d="M4.375 0C3.82272 0 3.375 0.447716 3.375 1V17C3.375 17.5523 3.82272 18 4.375 18H7.375C7.92728 18 8.375 17.5523 8.375 17V1C8.375 0.447715 7.92728 0 7.375 0H4.375ZM11.375 0C10.8227 0 10.375 0.447716 10.375 1V17C10.375 17.5523 10.8227 18 11.375 18H14.375C14.9273 18 15.375 17.5523 15.375 17V1C15.375 0.447715 14.9273 0 14.375 0H11.375Z" fill="black"/>
</svg>
