<svg width="18" height="18" viewBox="0 0 18 18" fill="none" xmlns="http://www.w3.org/2000/svg">
<path d="M1.46657 5.37484H2.39057V1.125H1.64085C1.53562 1.38292 1.34161 1.60907 1.05882 1.80347C0.776032 1.99595 0.514066 2.12683 0.272927 2.19612V2.93234C0.731092 2.79953 1.12897 2.59454 1.46657 2.31738V5.37484Z" fill="black"/>
<path d="M18 1.80347H5.29412V4.45963H18V1.80347Z" fill="black"/>
<path d="M18 8.17824H5.29412V10.8344H18V8.17824Z" fill="black"/>
<path d="M5.29412 14.553H18V17.2092H5.29412V14.553Z" fill="black"/>
<path d="M3.17647 10.6121V11.3656H0C0.0343983 11.0807 0.137593 10.8113 0.309585 10.5572C0.481577 10.3012 0.82126 9.96246 1.32864 9.54094C1.73712 9.20026 1.98758 8.96929 2.08002 8.84803C2.20472 8.68057 2.26706 8.51505 2.26706 8.35144C2.26706 8.17052 2.21224 8.03193 2.1026 7.9357C1.9951 7.83753 1.84569 7.78845 1.65434 7.78845C1.46515 7.78845 1.31466 7.83946 1.20287 7.94147C1.09107 8.04348 1.02657 8.21286 1.00938 8.4496L0.10642 8.36876C0.160167 7.92222 0.328934 7.60175 0.61272 7.40735C0.896506 7.21295 1.25124 7.11575 1.67692 7.11575C2.14345 7.11575 2.51 7.22835 2.77659 7.45355C3.04318 7.67874 3.17647 7.95879 3.17647 8.2937C3.17647 8.48425 3.13777 8.66614 3.06038 8.83937C2.98513 9.01067 2.86474 9.19063 2.69919 9.37926C2.58955 9.50437 2.39176 9.68433 2.10582 9.91915C1.81989 10.154 1.63822 10.3099 1.56082 10.3869C1.48558 10.4639 1.42431 10.5389 1.37701 10.6121H3.17647Z" fill="black"/>
<path d="M0.887064 16.4714L0 16.5651C0.0456577 16.9152 0.210895 17.1991 0.495712 17.4167C0.780529 17.6325 1.13927 17.7404 1.57193 17.7404C2.02851 17.7404 2.41007 17.6117 2.71663 17.3543C3.02319 17.0969 3.17647 16.7856 3.17647 16.4203C3.17647 16.1686 3.09385 15.9538 2.92861 15.7759C2.76555 15.598 2.54705 15.4835 2.2731 15.4324C2.73185 15.2147 2.96123 14.9232 2.96123 14.558C2.96123 14.3006 2.84926 14.0697 2.62532 13.8653C2.35354 13.6155 1.99263 13.4905 1.54258 13.4905C1.2795 13.4905 1.04143 13.5341 0.828361 13.6211C0.617466 13.7063 0.452229 13.8246 0.332649 13.976C0.215243 14.1255 0.127189 14.3261 0.0684865 14.5778L0.913154 14.7028C0.93707 14.5211 1.00447 14.3829 1.11535 14.2883C1.22624 14.1936 1.35995 14.1463 1.51649 14.1463C1.6752 14.1463 1.80239 14.188 1.89806 14.2712C1.99372 14.3545 2.04155 14.4662 2.04155 14.6062C2.04155 14.7709 1.97633 14.9034 1.84588 15.0037C1.71542 15.1021 1.52627 15.1485 1.27842 15.1428L1.17732 15.7929C1.34038 15.7532 1.48061 15.7333 1.59802 15.7333C1.7763 15.7333 1.92741 15.7919 2.05133 15.9093C2.17526 16.0266 2.23723 16.1856 2.23723 16.3862C2.23723 16.5982 2.172 16.7666 2.04155 16.8916C1.91327 17.0165 1.75456 17.0789 1.56541 17.0789C1.3893 17.0789 1.23928 17.0269 1.11535 16.9228C0.991424 16.8187 0.915328 16.6682 0.887064 16.4714Z" fill="black"/>
</svg>
